<svg id="Capa_1" enable-background="new 0 0 512 512" height="512" viewBox="0 0 512 512" width="512" xmlns="http://www.w3.org/2000/svg">
    <g>
        <path d="m280.747 381.027c-1.997-15.978-15.646-28.027-31.749-28.027-1.101 0-1.996-.896-1.996-1.996v-16.004h-110v16.004c0 1.101-.896 1.996-1.996 1.996-16.103 0-29.752 12.049-31.751 28.043l-14.139 114.112c-1.108 8.941 5.873 16.845 14.886 16.845h176c9.01 0 15.995-7.901 14.886-16.845z"/>
        <path d="m140.714 68.03c29.919 8.897 72.589 8.882 102.578-.03l3.673-51.943c.612-8.667-6.258-16.057-14.963-16.057h-80c-8.689 0-15.576 7.374-14.963 16.058z"/>
        <path d="m408.002 113c-8.284 0-15 6.716-15 15v224c0 9.374-7.626 17-17 17s-17-7.626-17-17v-120c0-25.916-21.084-47-47-47h-2.745c-12.555 0-24.358 4.89-33.234 13.767-24.45 24.449-24.628 24.627-50.234 50.233h-18.787v-114.483c28.961-1.802 60.243-9.255 78.571-16.59 7.685-3.073 11.418-11.788 8.354-19.477-3.064-7.688-11.788-11.437-19.479-8.385-11.217 4.505-33.406 9.746-33.389 9.515-29.888 6.869-70.035 6.793-99.915-.376-18.936-4.166-31.421-9.071-31.572-9.13-7.693-3.08-16.421.664-19.498 8.355-3.077 7.692.665 16.422 8.356 19.498 17.843 7.141 49.033 14.752 78.571 16.59v114.483h-18.787l-23.606-23.606c-5.857-5.857-15.355-5.857-21.213 0s-5.858 15.355 0 21.213l23.606 23.606v34.787h110v-34.787c25.53-25.53 25.782-25.782 50.235-50.234 3.21-3.21 7.479-4.979 12.02-4.979h2.745c9.374 0 17 7.626 17 17v120c0 25.916 21.084 47 47 47s47-21.084 47-47v-224c.001-8.284-6.715-15-14.999-15z"/>
    </g>
</svg>